<?xml version="1.0" standalone="no"?>
<svg viewBox="-395 -150 1500 1500" style="width: 390px; height: 390px; justify-content: center; align-self: center; transform: scale(1, 1);" xmlns="http://www.w3.org/2000/svg"><g transform="rotate(0 348.4207305908203 581.5005246249202)"><g transform="translate(0 459)"><path d="M775.898 68.6694C760.379 7.48967 686.815 -3.14589 633.159 0.69637C616.289 5.1391 615.152 15.9766 613.771 29.1472C613.296 33.6753 612.793 38.4792 611.611 43.3938C606.99 62.6031 592.008 83.5037 562.905 101.07C563.776 99.044 536.193 102.393 535.209 115.513C488.786 133.715 437.665 134.573 392.365 156.383C348.063 179.097 310.074 212.153 269.202 240.28L110.794 354.916C106.996 357.665 105.078 362.026 105.219 366.175C67.3151 394.016 37.0616 431.092 10.3302 469.537L8.62864 471.992C3.64464 476.016 -1.54236 484.474 0.428643 490.376C1.50936 510.007 16.2761 525.544 27.4013 540.747L28.1456 541.772C63.8916 590.33 103.137 636.296 145.296 679.388C166.408 699.191 185.018 726.529 215.901 729.888C247.61 732.377 279.675 728.252 311.141 723.669L320.887 722.239C329.067 720.871 331.382 709.123 325.73 703.869C259.354 642.286 199.515 573.312 148.385 498.559C148.907 498.186 149.485 497.769 149.998 497.398L151.306 496.446C158.396 491.39 171.217 482.087 178.834 476.629L182.374 474.101C189.088 469.335 196.678 464.84 201.792 458.32C223.742 424.846 169.874 375.032 141.541 361.985C214.758 309.422 287.197 255.743 360.676 203.555C378.695 190.917 397.499 178.829 418.236 171.169C456.471 157.102 498.067 154.155 536.279 140.238C554.417 266.455 907.254 244.699 806.126 115.263C790.194 100.703 780.711 90.9319 775.898 68.6694ZM914.779 320.144C914.053 315.54 907.996 310.788 903.28 311.376C846.677 318.456 789.395 318.748 732.723 312.249C724.595 311.316 719.649 320.604 721.203 327.391L728.252 358.163L728.473 359.148C730.288 367.397 731.444 376.651 734.581 384.652C733.69 392.63 731.782 400.922 729.852 409.308C724.602 432.131 719.19 455.654 733.653 475.465C764.568 506.775 816.832 523.336 858.857 506.59C871.957 501.009 883.368 491.829 890.911 479.649C898.303 467.714 901.615 453.829 904.578 440.213L906.057 433.377C914.093 396.043 920.795 358.31 914.779 320.144ZM1024.89 412.266C1073.87 338.565 1120.56 420.109 1140.95 469.256C1163.72 532.805 1120.43 610.17 1088.4 667.419C1086.53 670.761 1084.7 674.034 1082.92 677.231C1071.05 693.333 1055.43 727.297 1034.51 729.759C981.787 729.544 928.994 725.832 876.242 724.726C842.18 716.276 889.97 665.089 922.982 683.785C932.984 687.527 937.981 698.883 947.734 702.526C950.965 703.215 951.461 701.968 952.611 699.076C952.726 698.787 952.847 698.482 952.978 698.161L953.183 697.666C955.76 691.543 958.259 685.386 960.797 679.247C982.274 626.357 1004.98 573.934 1027.56 521.533C1032.38 510.156 1025.61 500.783 1016.82 494.011C1014.98 492.5 1011.5 490.394 1007.95 488.251C998.481 482.539 988.584 476.565 1008.42 480.895C997.914 456.522 1010.53 431.783 1024.89 412.266Z" transform="translate(-224 -30.00002)" fill="#FFFFFF" fill-rule="evenodd" stroke="none"></path><path d="M630.857 0.303104C630.797 -0.115896 630.137 -0.0858957 630.047 0.303104C626.227 16.9141 620.537 32.8141 609.667 46.2741C604.407 52.7741 598.157 58.6751 591.097 63.1641C584.027 67.6641 576.557 68.9341 568.987 71.5941C567.537 70.3941 565.907 69.4441 564.347 68.7941C560.567 67.2341 555.747 67.7441 551.907 69.2041C536.427 69.5641 520.887 71.9841 505.707 74.8031C488.817 77.9341 471.997 81.3941 455.247 85.1941C438.517 88.9941 421.877 93.2551 405.327 97.7841L404.345 98.051C389.59 102.037 373.489 105.291 360.097 112.814C354.405 116.011 349.294 120.157 344.288 124.349L334.52 132.55L314.546 149.359C303.305 158.809 292.034 168.232 280.867 177.774C254.087 200.664 227.367 223.614 200.497 246.404C185.537 259.094 170.577 271.784 155.617 284.464C148.267 290.704 140.917 296.944 133.567 303.175C125.747 309.803 117.437 316.133 110.227 323.414C107.587 326.074 108.347 330.264 111.357 332.224C112.347 332.864 113.317 333.524 114.287 334.214C103.507 341.633 93.427 349.644 83.757 358.734C71.447 370.284 59.387 382.184 47.857 394.524C36.367 406.824 24.977 419.244 13.787 431.814L13.3302 432.329C8.4623 437.828 3.78308 443.674 1.41702 450.714C-1.16298 458.374 -0.00273869 466.244 3.14702 473.514C9.15701 487.335 18.747 500.224 27.037 512.755C35.587 525.664 44.507 538.294 53.817 550.664C72.917 576.014 93.297 600.714 115.787 623.144C140.287 647.585 166.917 670.344 195.907 689.294C202.797 693.794 209.227 682.734 202.347 678.284C152.707 646.184 111.107 602.425 74.637 556.255C56.427 533.204 39.427 509.114 23.557 484.394L23.1705 483.795C19.2835 477.794 14.7738 471.632 12.877 464.684C10.9112 457.476 13.9226 451.197 18.1531 445.523L18.637 444.883C28.327 432.244 39.747 420.633 50.407 408.803L55.5238 403.128C65.7599 391.776 76.0284 380.441 86.657 369.444C93.057 362.835 99.487 356.224 106.007 349.744C109.319 346.448 112.452 342.966 115.554 339.458L117.877 336.824C125.298 342.437 132.25 348.987 138.937 355.444L143.357 359.724C153.197 369.264 162.497 379.335 171.257 389.883C182.907 403.904 193.347 418.744 202.867 434.184C202.487 434.474 202.117 434.764 201.737 435.064C201.407 435.324 201.117 435.624 200.877 435.944C192.906 440.044 185.552 445.369 178.237 450.557L176.147 452.034C170.297 456.144 164.457 460.274 158.727 464.553C158.521 464.707 158.314 464.862 158.105 465.019C153.516 468.445 148.28 472.355 149.887 478.734C150.577 481.484 154.037 483.794 156.857 482.694C158.507 482.053 159.637 481.204 160.637 480.194C163.239 486.898 167.53 493.439 171.565 499.261L172.527 500.644C177.127 507.244 181.932 513.697 186.762 520.13L190.387 524.954C201.067 539.175 211.967 553.303 223.197 567.094C245.387 594.344 269.087 620.494 295.427 643.803C310.457 657.114 326.107 669.764 342.647 681.154C351.387 687.184 359.777 672.814 350.977 666.914C295.299 629.589 251.853 576.964 208.846 526.18L202.765 519.009C196.482 511.616 190.148 504.251 183.587 497.114C177.477 490.464 170.657 482.814 162.867 477.774C162.904 477.727 162.944 477.68 162.986 477.633L163.247 477.344C165.047 475.374 167.297 473.744 169.337 472.034C174.477 467.734 179.657 463.474 184.857 459.234C189.647 455.335 194.517 451.484 199.047 447.284C202.777 452.284 208.077 456.374 213.347 459.694L213.857 460.018C214.197 460.231 214.537 460.438 214.877 460.644C216.557 461.654 218.267 461.874 219.807 461.514L219.817 461.514L220.036 461.59C221.723 462.126 223.626 461.552 224.987 460.344C239.957 456.024 254.027 447.714 268.037 441.064C283.387 433.784 298.917 426.844 314.527 420.154C343.387 407.784 373.007 396.255 403.087 387.064C414.297 459.604 417.137 532.505 412.277 605.784C410.877 626.724 409.507 647.675 407.067 668.524C405.877 669.724 404.737 670.954 403.907 672.335C401.037 677.124 402.097 683.064 406.857 686.303C411.469 689.445 418.01 689.437 423.84 689.43C425.305 689.428 426.724 689.426 428.057 689.474L431.4 689.585C436.973 689.749 442.555 689.816 448.134 689.871L461.335 689.994C489.538 690.21 517.747 689.9 545.95 689.502L581.316 688.99C643.898 688.097 706.521 687.466 769.047 690.755C788.377 691.764 807.647 693.374 826.927 695.074C846.017 696.755 865.207 697.954 884.277 695.414C890.627 694.564 892.697 689.133 891.177 684.974C897.527 686.774 904.517 686.744 911.027 687.244L912.53 687.356C919.532 687.855 926.358 688 933.237 686.133C935.107 685.624 935.797 682.574 933.817 681.684C924.397 677.444 914.297 677.164 904.167 676.324L901.53 676.108C899.77 675.956 898.01 675.767 896.277 675.414C896.02 675.363 895.345 675.119 894.522 674.807L892.537 674.044C892.827 673.694 893.117 673.335 893.397 673.053C895.027 671.434 896.737 669.944 898.627 668.624C907.727 662.294 918.237 660.264 928.347 661.925C929.617 663.654 931.377 665.014 933.417 665.574C935.297 666.094 937.337 665.904 939.207 665.194C942.767 666.784 946.177 668.854 949.347 671.374C949.847 671.774 950.687 671.274 950.297 670.633C948.367 667.474 946.067 664.714 943.487 662.364C945.647 660.074 946.687 656.904 945.347 653.644C943.587 649.364 941.057 643.883 936.657 641.714C936.777 640.449 936.673 639.115 936.514 637.736L936.387 636.694C935.837 632.194 935.367 627.684 934.917 623.164C934.007 614.144 933.347 605.104 932.947 596.053C932.137 577.934 932.447 559.803 933.137 541.694C934.547 504.974 938.957 468.414 944.417 432.104C944.807 429.524 945.197 426.934 945.577 424.354C945.617 425.085 945.827 425.835 946.167 426.633C947.907 430.764 951.737 434.844 954.597 438.284C960.284 445.095 967.132 450.305 974.196 455.462L978.048 458.264C981.316 460.648 984.514 463.145 987.277 466.104C990.087 469.114 991.407 472.744 993.627 476.104C996.097 479.864 999.727 482.414 1004.35 482.294C1008.01 482.196 1011.58 480.272 1014.9 478.245L1018.01 476.324C1019.64 477.814 1021.95 478.494 1024.74 477.553C1026.34 477.014 1027.94 476.464 1029.54 475.894C1030.77 478.784 1034.59 483.61 1035.51 484.589L1035.63 484.704C1037.97 486.914 1040.63 488.784 1043.47 490.324C1043.26 490.344 1043.05 490.425 1042.9 490.585C1031.33 502.216 1024.76 519.093 1018.4 534.102L1017.73 535.675C1011.6 550.024 1005.87 564.548 1000.2 579.085L994.427 593.922C988.6 608.889 982.802 623.87 977.567 639.053C974.557 647.794 971.657 656.564 968.697 665.324C965.787 673.954 961.977 682.755 959.957 691.624C958.417 698.383 968.017 703.094 971.537 696.514C975.817 688.524 978.687 679.464 982.137 671.074C985.667 662.484 989.207 653.883 992.727 645.284C998.423 631.349 1003.58 617.197 1008.67 603.026L1013.62 589.212C1019.36 573.204 1025.08 557.176 1030.34 540.994C1033.1 532.494 1035.78 523.994 1038.44 515.474L1039.74 511.302C1041.81 504.718 1043.76 498.204 1044.66 491.314C1044.68 491.175 1044.66 491.044 1044.62 490.934C1045.87 491.564 1047.16 492.133 1048.46 492.644C1053.73 494.704 1059.26 495.744 1064.87 496.364L1065.23 496.404C1065.71 496.459 1066.2 496.516 1066.69 496.574C1072.29 497.235 1078.08 497.919 1082.65 494.194C1084.78 492.464 1084.72 488.303 1082.65 486.574C1078.84 483.378 1073.93 483.408 1069.06 483.437C1067.33 483.448 1065.61 483.458 1063.94 483.324C1057.97 482.835 1052.08 481.614 1046.56 479.255C1042.97 477.714 1040.14 475.294 1037.13 473.053C1061.78 463.374 1085.08 449.314 1099.87 426.734C1109.26 412.373 1112.33 396.288 1114.11 379.541L1114.29 377.864C1115.22 368.734 1115.35 360.335 1110.58 352.154C1105.6 343.594 1099.34 335.585 1093.79 327.374C1070.84 293.454 1048.02 259.454 1025.2 225.454C1013.9 208.604 1003.13 191.364 991.697 174.604C986.697 167.274 981.377 159.454 974.527 153.734C967.797 148.114 960.127 144.044 952.387 140.014L948.43 137.961C929.958 128.39 911.402 119.002 892.567 110.154C888.787 108.374 884.767 106.364 880.577 104.364C873.677 100.194 865.347 97.3841 857.977 94.3241L856.488 93.7091C849.03 90.6444 841.401 87.7435 833.667 85.4841C827.897 83.7941 821.007 84.4841 818.037 89.6141C812.997 85.9341 808.587 81.5531 804.517 76.7841C799.587 71.0241 795.477 64.4441 792.367 57.5241C790.757 53.9541 789.537 50.2041 788.457 46.4341C787.527 43.1941 787.237 39.7741 785.727 36.7441C785.387 36.0641 784.187 36.0141 783.867 36.7441C781.066 43.0797 782.815 51.9512 784.555 58.6576L784.887 59.9141C787.137 68.3241 791.037 76.2041 796.197 83.2041C801.147 89.9251 807.447 95.6751 814.317 100.384C811.027 110.484 808.317 120.734 804.357 130.664C800.327 140.794 795.867 151.585 787.767 159.175C773.757 172.309 750.71 172.376 731.85 172.43C730.418 172.434 729.009 172.438 727.631 172.448L724.491 172.477C680.039 172.835 632.706 165.357 598.997 133.894C590.567 126.024 583.897 117.034 578.297 106.984C575.167 101.364 572.287 95.5941 569.077 90.0241C567.997 88.1541 566.937 86.2841 565.787 84.5051C566.067 84.6641 566.367 84.8031 566.687 84.9251C576.895 88.9119 588.007 82.9751 596.23 76.8273L596.857 76.3541C604.907 70.2141 611.737 62.5741 617.277 54.1141C627.427 38.6241 633.657 18.9251 630.857 0.303104ZM862.481 306.961C879.511 306.847 896.558 306.732 913.517 305.564C913.547 306.294 913.567 307.014 913.587 307.744C905.857 306.624 897.507 308.344 890.257 310.904C882.657 313.585 874.997 316.904 866.867 317.494C859.277 318.044 852.377 315.494 845.597 312.374L842.73 311.059C839.859 309.748 836.98 308.46 834.077 307.335C834.197 307.335 834.317 307.324 834.437 307.324L837.474 307.253C845.797 307.073 854.137 307.017 862.481 306.961ZM799.497 308.534C797.627 308.604 795.757 308.684 793.887 308.764C786.967 309.064 780.047 309.404 773.127 309.794C771.788 309.867 770.363 310.034 768.902 310.205C765.137 310.646 761.133 311.116 757.747 310.064C757.627 310.544 757.467 311.005 757.257 311.454C757.967 314.994 758.407 318.654 758.677 322.354C763.017 322.824 767.427 322.664 771.707 321.774C781.977 319.644 790.317 313.164 799.497 308.534ZM874.797 324.534C887.467 321.244 900.447 312.614 913.717 312.154C913.977 320.794 914.167 329.434 914.217 338.053C909.687 334.434 903.067 333.104 897.067 334.154C891.351 335.149 885.85 338.302 880.34 341.46C872.067 346.201 863.773 350.955 854.697 348.434C847.957 346.553 842.387 341.704 836.627 337.954C830.867 334.204 824.277 331.133 817.307 330.854C810.827 330.585 805.047 333.394 800.617 338.014C795.797 343.044 792.497 349.154 785.477 351.434C778.211 353.785 771.93 351.281 765.836 347.471L765.147 347.034C763.227 345.794 761.207 344.434 759.107 343.234C759.104 342.116 759.105 340.991 759.105 339.857L759.105 339.848C759.106 337.022 759.107 334.165 759.057 331.303C771.839 332.367 782.987 328.1 793.935 321.867L795.087 321.204C801.097 317.704 807.277 313.835 814.267 312.694C821.437 311.534 828.387 314.085 834.857 316.925L836.484 317.642C849.092 323.2 860.644 328.207 874.797 324.534ZM827.757 343.574C823.987 341.585 819.397 339.734 815.037 340.314C810.877 340.863 808.105 343.685 805.543 346.701L804.156 348.353C799.573 353.774 795.062 358.333 787.997 360.564C780.677 362.864 772.917 361.964 766.107 358.594C763.687 357.394 761.437 355.904 759.177 354.434L759.297 370.383C763.817 372.633 768.417 374.664 773.467 375.894C782.787 378.164 790.707 376.484 798.677 371.344L799.514 370.799C805.517 366.857 811.672 362.164 819.087 361.724C826.323 361.291 831.754 365.303 836.519 370.213L837.077 370.794C843.087 377.133 849.157 380.224 858.097 379.494C866.764 378.786 874.876 374.959 882.816 371.662L883.537 371.364C890.797 368.383 899.167 365.314 907.137 366.454C909.047 366.724 911.517 367.314 913.717 368.344C914.037 360.883 914.187 353.414 914.217 345.934C909.687 342.005 902.637 341.354 896.967 342.964C888.087 345.484 880.817 351.984 872.337 355.514C864.817 358.644 856.977 359.344 849.307 356.383C841.387 353.324 835.177 347.494 827.757 343.574ZM812.507 374.074C815.287 372.524 818.517 371.014 821.787 371.644C825.171 372.301 827.615 374.975 829.9 377.406L830.657 378.204C835.867 383.604 841.527 387.544 849.067 388.755C857.207 390.064 865.657 388.544 873.287 385.624C881.337 382.553 888.907 378.274 897.037 375.404C900.757 374.094 904.947 372.835 908.937 372.854C910.607 372.864 912.057 373.244 913.457 373.764C913.067 381.335 912.487 388.894 911.687 396.454C901.513 391.127 888.283 396.456 878.091 401.138L876.217 402.005C868.167 405.744 860.337 408.564 851.327 407.734C842.806 406.95 836.201 402.934 829.39 398.313L827.597 397.089C821.639 393.051 814.67 389.498 807.277 391.324C800.047 393.104 794.517 398.803 787.307 400.914C780.237 402.984 772.627 403.204 765.447 401.564C763.427 401.094 761.447 400.505 759.517 399.774C759.467 393.704 759.417 387.633 759.377 381.564C769.637 385.914 780.937 388.204 791.267 385.544C799.297 383.474 805.417 378.005 812.507 374.074ZM1114.2 379.624C1114.03 378.865 1114.94 378.284 1115.53 378.855C1125.5 388.464 1132.54 400.744 1140.27 412.124C1147.63 422.964 1155.64 433.384 1161.13 445.345C1166.23 456.464 1169.52 467.744 1170.5 479.964C1171.48 492.095 1170.21 504.255 1168.07 516.204C1163.86 539.744 1154.86 562.034 1144.98 583.685C1135.37 604.732 1124.52 625.18 1113.06 645.256L1108.95 652.424C1103.94 661.15 1098.87 669.861 1093.45 678.315C1086.7 688.835 1080.54 699.695 1071.64 708.475C1065.32 714.725 1053.41 708.475 1056.29 699.544C1057.54 695.655 1058.52 691.994 1060.46 688.384C1061.93 685.634 1063.59 682.964 1065.15 680.255C1068.27 674.835 1071.36 669.395 1074.48 663.975C1081.03 652.585 1087.93 641.405 1094.42 629.975C1105.68 610.155 1116.31 589.964 1125.71 569.185L1126.81 566.732C1135.46 547.49 1143.66 527.559 1147.46 506.744C1151.46 484.815 1147.88 464.145 1140.09 443.534C1136.06 432.874 1131.53 422.454 1126.82 412.074L1125.91 410.091C1121.36 400.184 1116.54 390.33 1114.2 379.624ZM821.749 404.753L820.544 403.977C817.366 401.949 813.721 399.848 809.827 400.594C806.347 401.264 803.357 404.034 800.327 405.744C793.677 409.494 786.217 411.544 778.607 412.064C772.277 412.494 765.707 411.724 759.617 409.844L759.827 429.505C762.057 430.214 764.367 430.724 766.797 430.904C774.177 431.454 781.377 429.684 787.567 425.614L790.698 423.535C796.057 420.014 801.085 417.22 808.177 418.505C815.197 419.784 821.087 424.284 826.827 428.204L827.768 428.836C834.36 433.188 841.042 435.997 849.127 436.064C857.857 436.133 866.487 433.704 874.617 430.714C882.687 427.755 890.357 424.204 898.987 423.114C901.627 422.784 904.847 422.684 907.877 423.204C908.277 420.974 908.657 418.755 909.017 416.524C909.797 411.734 910.467 406.954 911.047 402.164C900.929 399.441 891.322 404.34 881.865 409.162C877.013 411.636 872.199 414.09 867.377 415.484C859.127 417.864 850.147 417.835 841.897 415.534C834.263 413.404 828.262 408.982 821.749 404.753ZM819.419 435.241L820.497 435.974C827.147 440.434 833.817 444.053 841.847 445.214C850.077 446.404 858.427 445.383 866.417 443.234C874.577 441.044 882.157 437.294 889.907 434.005C894.007 432.264 898.147 430.704 902.547 429.894C903.947 429.633 905.327 429.564 906.687 429.564C906.617 429.954 906.537 430.354 906.457 430.744C905.687 434.644 905.487 440.204 903.137 443.524C900.977 446.585 896.337 448.324 893.237 450.144L892.877 450.354L892.066 450.36C889.632 450.402 887.183 450.676 884.807 451.144C879.67 452.146 874.616 454.237 869.548 456.333C860.398 460.119 851.201 463.923 841.387 461.374C828.947 458.154 819.117 448.484 806.107 446.814C799.197 445.925 792.887 447.803 786.637 450.614L784.447 451.595C781.201 453.04 778.114 454.358 774.907 455.454C769.967 453.335 765.027 451.234 760.057 449.184L759.957 440.303C766.527 441.664 773.527 441.454 779.637 440.044C783.317 439.194 786.947 437.784 790.247 435.944C793.527 434.124 796.257 431.394 799.587 429.704C806.373 426.261 813.045 430.854 818.718 434.759C818.953 434.921 819.187 435.082 819.419 435.241ZM804.057 456.094C798.057 455.675 792.657 458.154 787.297 460.794C790.317 462.104 793.337 463.404 796.357 464.694L816.457 473.274C823.097 476.104 830.127 478.564 836.437 482.053C836.887 482.303 837.247 482.604 837.517 482.954C844.077 478.755 851.017 475.005 857.667 471.014C859.187 470.104 860.717 469.194 862.247 468.284C854.327 470.934 846.207 472.264 837.607 469.774C826.137 466.464 816.177 456.944 804.057 456.094Z" transform="translate(-236.9973 -6.999804)" fill="#000000" fill-rule="evenodd" stroke="none"></path></g><g transform="translate(225 0)"><g><g><path d="M333.415 93.2216C329.554 69.8624 342.226 65.0158 333.415 42.8109C313.833 1.66731 260.468 3.44007 221.308 0.276637C177.63 -1.39736 133.422 4.36885 93.1557 21.875C83.5377 26.056 74.2867 30.9732 65.4187 36.5599C57.7507 41.3913 58.8047 50.5773 63.6397 55.5884C28.7747 104.96 48.7157 171.232 20.8967 223.202C15.7577 232.491 8.96066 240.821 4.49366 250.487C-2.29634 265.18 -2.73134 286.233 12.6667 295.99C34.3537 307.631 46.4557 284.584 57.1117 317.993C110.33 434.483 217.329 441.044 318.905 380.31C327.693 375.422 336.662 369.897 343.298 362.217C358.361 345.266 356.587 321.428 356.92 300.259C357.106 287.854 357.137 275.447 357.016 263.039C356.542 212.781 339.885 143.065 333.415 93.2216Z" transform="translate(52 80)" fill="#FFFFFF" stroke="none"></path><path d="M328.858 2.05735C261.958 -4.86265 192.397 5.68736 131.067 33.5074C98.6176 48.2274 68.8166 68.4874 42.6976 92.7374C37.9276 91.3974 32.7076 91.1174 28.3676 91.8674C21.2676 93.0974 14.7676 97.1574 10.5076 102.957C4.02762 111.757 4.25762 122.977 9.17762 131.897C8.39662 132.526 7.67762 133.247 7.01762 134.026C1.82762 140.217 2.36762 148.207 6.17762 154.977C7.24342 156.875 9.16081 158.976 11.1901 161.199C15.3299 165.734 19.9355 170.779 18.7276 175.657C17.9176 178.967 14.9776 182.067 13.2676 184.977C11.1376 188.597 9.33762 192.377 7.73762 196.257C-4.71818 226.333 -0.00202393 258.647 7.02466 289.34L7.65708 292.088C9.04719 298.235 10.3267 305.444 12.6176 312.087C-4.37238 335.487 -0.292376 375.167 27.4976 388.417C34.3276 391.677 41.9276 393.517 49.5176 393.267C53.4776 393.127 57.6076 392.587 61.3576 391.287C63.2276 390.637 65.0776 389.807 66.5276 388.477C70.0076 406.887 77.9576 423.847 87.9476 439.797C93.5776 448.767 100.108 457.727 107.668 465.177C115.658 473.037 129.448 480.717 139.189 471.047C142.508 467.757 141.439 462.647 137.788 460.207C130.948 455.607 123.708 452.787 117.668 446.937C110.948 440.427 104.588 433.397 98.5876 426.227C90.0312 416.005 82.5119 404.857 75.1567 393.666L69.1576 384.517C69.171 384.487 69.1821 384.457 69.1921 384.427L69.2476 384.237C69.2636 384.143 69.2788 384.052 69.2933 383.963L69.4386 383.026C69.4725 382.954 69.5155 382.863 69.5663 382.753L69.8076 382.207C71.6466 378.677 69.3576 374.617 65.3576 374.446C64.0719 374.446 63.8943 374.407 64.8177 374.321L65.1976 374.287C63.8276 373.487 62.3476 373.087 60.7476 373.087C58.8776 373.087 57.0976 373.727 55.3076 374.167C52.6676 374.817 50.3166 375.276 47.5976 375.267C42.0176 375.247 36.6376 373.637 31.9276 370.667C21.0476 363.807 17.9076 349.097 19.6676 337.057C20.1676 333.647 20.9876 330.427 22.1576 327.427C23.6076 328.657 25.2276 329.707 27.0376 330.557C27.3076 330.687 27.5276 330.317 27.2776 330.147C25.5076 329.007 23.9876 327.647 22.6886 326.127C25.9476 318.507 31.4576 312.337 39.2876 308.007C44.2276 305.276 49.8076 303.977 55.2976 304.167C55.3166 304.327 55.3476 304.487 55.3776 304.647C55.9783 307.776 57.4624 309.353 59.6223 311.246L60.3966 311.917C63.3476 314.437 67.1276 314.207 69.5076 311.837L69.5666 311.917C70.3276 311.167 70.9776 310.467 71.5376 309.776C72.6466 310.607 73.6976 311.537 74.6886 312.567C75.0576 312.946 75.6776 312.457 75.4276 311.997C74.6466 310.587 73.7676 309.257 72.7876 308.026C74.0576 305.907 74.5476 303.667 74.5576 300.387C74.5642 297.003 74.4699 293.608 74.3758 290.218C74.3414 288.98 74.307 287.743 74.2776 286.507C74.0666 277.577 73.6076 268.647 73.2576 259.717C73.1717 257.481 72.9894 255.167 72.8046 252.821C72.3654 247.245 71.9123 241.493 72.7076 236.207C73.3663 231.834 76.0088 230.809 79.648 229.747L84.3783 228.38C95.5003 225.123 106.766 221.046 109.178 207.897C110.675 199.71 108.189 192.058 105.694 184.378C103.907 178.879 102.116 173.364 101.778 167.627C101.058 155.577 104.758 143.307 111.608 133.337C118.248 135.057 124.858 136.887 131.608 138.237C140.948 140.117 150.317 141.797 159.718 143.317C178.189 146.307 196.718 148.696 215.388 150.087C252.808 152.867 290.508 151.467 327.628 145.877C332.908 145.087 338.168 144.157 343.388 143.007C343.358 143.897 343.317 144.797 343.268 145.696C342.978 150.717 342.838 155.707 342.828 160.727C342.658 162.037 342.698 163.457 342.939 165.007L343.218 166.817C343.418 168.077 343.918 169.227 344.658 170.237C346.439 198.037 350.189 225.687 353.758 253.327L354.608 259.939C358.846 293 362.863 326.098 366.238 359.257C366.538 362.197 366.894 365.184 367.254 368.201C368.86 381.673 370.537 395.733 367.588 408.797C364.668 421.767 356.388 431.847 346.078 439.907C321.848 458.877 291.468 471.398 261.888 479.077C246.048 483.187 228.918 487.287 212.468 487.097C206.578 487.026 200.328 486.317 194.939 483.776C190.335 481.617 187.444 477.727 184.805 473.541L184.298 472.727C182.098 469.177 175.678 469.377 174.788 473.967C172.138 487.557 184.439 496.017 196.168 499.297C209.517 503.032 223.421 501.296 236.916 499.236L239.248 498.877C274.208 493.457 307.478 481.776 339.088 466.087C353.078 459.147 366.088 449.797 375.628 437.317C386.258 423.397 389.548 406.927 388.618 389.677C387.578 370.667 384.578 351.607 382.178 332.737L381.43 326.903C379.178 309.4 376.826 291.908 374.198 274.457C369.168 241.026 363.718 207.397 354.698 174.776C354.897 174.757 355.098 174.737 355.298 174.707C360.998 173.847 364.358 169.497 364.848 163.887L365.768 153.357L366.267 153.389C382.813 154.407 404.315 152.364 411.948 135.227C414.608 129.257 415.278 122.627 414.038 116.637C425.078 113.776 435.328 107.807 443.228 99.5574C447.328 95.2764 447.038 89.0874 443.228 84.7474C440.968 82.1574 438.558 79.8374 436.018 77.7574C443.228 75.1964 449.988 70.3974 453.748 63.7074C458.588 55.0974 456.689 44.5574 449.918 37.5874C444.1 31.5899 435.848 28.6654 428.193 25.719L425.475 24.6686C394.464 12.7839 361.878 5.46756 328.858 2.05735ZM54.9381 328.377C45.4381 327.567 37.7381 330.787 30.7671 336.937C30.0781 337.537 30.8371 338.477 31.5971 338.347C38.5071 337.127 46.6771 338.497 53.2781 340.627C60.6271 343.007 64.5781 348.007 70.4981 352.437C76.9981 357.297 86.0281 347.807 81.5971 341.337C75.9881 333.147 64.4881 329.196 54.9381 328.377Z" transform="translate(37.99998 0.0003450957)" fill="#000000" fill-rule="evenodd" stroke="none"></path></g></g><g transform="translate(159 186)"><g><path d="M161.26 3.75829C151.862 0.105287 135.062 -2.96371 127.162 5.02229C122.951 9.28029 125.484 15.1363 130.37 17.1713C133.516 18.4822 136.949 18.183 140.337 17.8877C141.669 17.7716 142.993 17.6562 144.29 17.6393C148.84 17.5813 153.361 18.1643 157.793 19.1723C161.357 19.9847 164.836 21.1098 168.293 22.2873L170.595 23.0773C171.32 23.3264 172.054 23.61 172.797 23.8967C175.616 24.9851 178.553 26.1192 181.532 25.5913C182.229 25.4673 182.565 24.7623 182.634 24.1453C183.089 20.0982 179.892 16.2352 177.024 13.4278L176.386 12.8144L175.972 12.4263C171.724 8.48129 166.624 5.84429 161.26 3.75829ZM33.6232 10.8211L35.7926 10.2262L38.0047 9.62924L39.5005 9.23374C49.7753 6.54436 61.1082 4.17756 71.2972 5.33309C75.0132 5.75509 78.0292 7.84609 78.5552 11.7391C78.9982 15.0241 76.8752 19.2621 73.2622 19.8461C61.2952 21.7821 49.0442 21.1541 37.0222 23.1501C31.0352 24.1431 25.0942 25.3761 19.1302 26.4871C14.5952 27.3331 9.90917 27.6301 5.33517 28.3141L6.38617 28.4601C6.75417 28.5101 6.66217 29.1291 6.29917 29.1041C4.79154 28.9536 3.28162 28.9302 1.7694 29.0359L1.12117 29.0891C0.134167 29.2281 -0.447833 28.0501 0.432167 27.4521C6.00517 23.6711 10.7342 19.5731 16.9742 16.7861C22.3712 14.3761 27.9262 12.3891 33.6232 10.8211ZM166.634 45.6655C168.478 45.1131 169.779 45.3742 171.441 46.2403C172.719 46.9059 173.589 47.9568 174.088 49.1838C174.599 50.4395 174.707 51.8878 174.454 53.2296C173.406 58.8007 170.042 63.7442 165.503 66.9282C161.091 70.0227 155.589 71.452 150.049 70.2614C146.003 69.3919 140.008 65.5531 136.85 60.8711C135.504 58.8752 134.671 56.736 134.581 54.6232C134.495 52.6084 135.008 50.5771 137.676 47.8994C137.936 47.8184 138.208 47.7747 138.477 47.7747C139.138 47.7747 139.821 48.0516 140.274 48.4513C141.469 49.502 142.312 50.8319 143.178 52.2626L143.41 52.6451C143.799 53.2818 144.2 53.9109 144.69 54.476C146.449 56.5028 149.003 58.2218 151.683 58.6693C154.167 59.0845 156.407 58.3485 158.181 56.9599C160.257 55.3353 161.713 52.8432 162.253 50.1809C162.472 49.1021 163.036 48.1297 163.818 47.3478C164.607 46.5588 165.615 45.9718 166.634 45.6655ZM49.1162 69.4299C47.1005 71.4882 44.4385 72.6496 41.0316 71.9587C38.3694 71.4193 33.3005 68.7424 29.2512 64.6199C26.481 61.7996 24.1647 58.2755 23.535 54.193C23.3888 53.2449 22.8856 52.6371 22.225 52.2543C21.7033 51.952 21.0154 51.8002 20.2661 51.876C19.6299 51.9404 18.9544 52.1708 18.4324 52.4762C17.4395 53.0572 17.0334 53.8821 16.9509 54.498C16.1543 60.4416 18.4501 66.3391 22.0288 71.3116C26.8584 78.0223 33.951 82.9399 38.1196 84.0909C45.2534 86.0617 52.7703 84.4928 58.3124 79.5277C62.7443 75.5578 65.0159 70.3856 67.1236 65.0671L67.53 64.0361C68.0041 62.8293 68.4745 61.6313 68.9729 60.4461C69.9719 58.0711 69.652 56.0181 68.6834 54.418C67.6103 52.6454 65.6296 51.3976 63.4246 51.0143C61.3865 50.6601 59.2055 51.0476 57.4838 52.2925C56.0293 53.3441 54.8564 55.0104 54.4397 57.4743C53.762 61.4809 52.1899 66.0779 49.4178 69.111L49.1162 69.4299ZM129.748 108.039C137.872 96.6602 126.366 85.9571 118.814 81.367C116.836 79.9471 118.406 75.2433 122.634 75.9703C161.031 82.5673 141.136 148.708 92.1122 112.413C86.2756 107.704 93.3436 97.3338 99.6344 101.366C99.9534 101.611 100.288 101.869 100.637 102.139C107.704 107.603 120.636 117.601 129.748 108.039ZM138.581 156.822C135.281 161.137 129.306 164.442 122.614 166.022C116.238 167.528 109.191 167.466 103.109 165.149L102.587 164.941C98.0396 163.053 93.6748 159.239 92.0173 155.26C91.3584 153.678 91.1354 152.069 91.5864 150.569C91.9921 149.219 92.9432 147.976 94.5273 146.909C95.0247 146.574 95.6918 146.55 96.3274 146.662C97.116 146.801 97.8933 147.17 98.3623 147.668C100.964 150.435 104.739 153.132 109.207 153.086C112.655 153.051 115.47 151.69 118.2 150.151L120.119 149.053C121.97 147.996 123.847 147.004 125.971 146.551C129.773 145.739 134.384 147.222 137.194 149.67C138.419 150.737 139.309 151.991 139.551 153.343C139.755 154.477 139.469 155.661 138.581 156.822Z" transform="translate(51.99983 63.00011)" fill="#000000" fill-rule="evenodd" stroke="none"></path></g></g><g transform="translate(123 338)"></g><g transform="translate(47 241)"></g></g></g></svg>